<?xml version="1.0" encoding="UTF-8" standalone="no"?>
<!DOCTYPE svg PUBLIC "-//W3C//DTD SVG 1.1//EN" "http://www.w3.org/Graphics/SVG/1.1/DTD/svg11.dtd">
<svg xmlns="http://www.w3.org/2000/svg" version="1.1" viewBox="0.00 0.00 1920.00 631.00">
<g stroke-width="2.00" fill="none" stroke-linecap="butt">
<path stroke="#3a2c24" vector-effect="non-scaling-stroke" d="
  M 479.41 366.09
  C 485.65 323.83 495.98 282.52 506.15 241.08
  Q 521.10 180.12 521.20 117.48
  A 0.62 0.62 0.0 0 0 520.59 116.86
  C 487.32 116.57 454.82 111.13 424.60 95.71
  Q 418.74 92.72 407.31 85.69
  C 375.87 66.35 349.96 50.87 316.49 43.52
  C 271.10 33.54 225.83 43.44 186.03 66.52
  Q 167.03 77.54 148.08 88.64
  C 115.45 107.76 80.44 117.70 42.68 116.79
  Q 40.84 116.75 39.81 117.49
  A 1.16 1.13 72.4 0 0 39.34 118.42
  Q 39.69 167.68 49.08 216.04
  C 55.25 247.85 64.27 280.80 72.59 317.98
  C 79.12 347.15 83.09 376.87 84.03 406.75
  C 85.25 444.97 85.90 494.61 136.88 498.99
  A 1.50 1.50 0.0 0 1 138.25 500.37
  C 141.53 544.30 182.83 564.07 219.77 574.95
  Q 246.45 582.81 273.25 590.22
  Q 281.58 592.52 287.48 590.69
  Q 313.51 582.60 339.73 575.20
  C 378.37 564.30 417.32 545.23 422.60 500.39
  A 1.70 1.69 0.8 0 1 424.14 498.90
  C 468.36 495.10 475.95 454.79 476.44 418.75
  C 476.67 401.27 476.85 383.40 479.41 366.09"
/>
<path stroke="#3a2c24" vector-effect="non-scaling-stroke" d="
  M 888.82 65.08
  C 855.87 63.58 827.17 80.21 817.48 112.45
  C 805.50 152.32 821.85 196.24 864.66 207.39
  Q 866.41 207.84 880.00 209.94
  C 893.70 212.06 904.68 215.85 918.22 222.36
  Q 955.67 240.37 967.26 245.73
  C 1001.02 261.33 1044.29 258.12 1067.40 225.67
  Q 1067.70 225.26 1067.31 224.92
  Q 1067.08 224.72 1066.79 224.73
  Q 1066.56 224.73 1066.30 224.95
  C 1038.95 247.38 999.09 246.87 967.91 233.70
  Q 936.42 220.41 904.39 208.96
  A 0.60 0.59 -76.7 0 1 904.00 208.32
  Q 904.05 207.90 904.50 207.79
  C 943.90 198.23 961.94 161.08 955.66 122.99
  C 949.89 88.02 923.94 66.67 888.82 65.08"
/>
<path stroke="#3a2c24" vector-effect="non-scaling-stroke" d="
  M 1302.28 181.72
  A 0.28 0.28 0.0 0 1 1301.81 181.97
  L 1197.59 83.92
  A 0.53 0.53 0.0 0 0 1196.70 84.34
  C 1198.95 118.73 1198.63 149.87 1197.79 195.00
  C 1197.62 203.82 1191.69 204.37 1184.14 206.10
  Q 1183.71 206.20 1183.74 206.64
  Q 1183.75 206.90 1183.92 207.09
  A 0.51 0.48 67.3 0 0 1184.28 207.25
  L 1220.95 207.25
  Q 1221.54 207.25 1221.51 206.66
  Q 1221.50 206.47 1221.50 206.28
  A 0.48 0.48 0.0 0 0 1221.04 205.80
  C 1214.40 205.45 1207.01 203.49 1207.00 195.18
  Q 1206.98 153.72 1207.01 113.18
  Q 1207.01 111.31 1208.37 112.60
  Q 1257.70 159.56 1305.97 205.28
  Q 1309.05 208.20 1311.95 210.33
  Q 1312.59 210.80 1312.53 210.01
  C 1309.94 173.52 1310.55 137.14 1311.16 100.61
  C 1311.29 92.15 1317.25 89.20 1325.02 88.80
  Q 1325.28 88.78 1325.47 88.68
  Q 1325.74 88.54 1325.86 88.42
  A 0.56 0.54 -66.7 0 0 1325.50 87.47
  L 1287.76 87.56
  A 0.48 0.48 0.0 0 0 1287.69 88.52
  C 1296.82 89.78 1302.51 91.90 1302.51 102.27
  Q 1302.50 140.47 1302.49 178.64
  C 1302.49 179.60 1302.07 180.61 1302.28 181.72"
/>
<path stroke="#3a2c24" vector-effect="non-scaling-stroke" d="
  M 1500.10 85.17
  C 1487.02 119.78 1470.75 151.60 1455.14 184.32
  C 1449.26 196.65 1446.67 203.83 1433.94 206.23
  A 0.32 0.31 45.4 0 0 1433.94 206.85
  Q 1434.28 206.93 1434.65 207.14
  Q 1435.02 207.35 1435.43 207.37
  Q 1453.60 208.21 1471.80 207.01
  Q 1472.59 206.96 1471.90 206.58
  C 1469.87 205.45 1467.22 205.15 1465.67 204.23
  C 1461.29 201.62 1461.29 197.75 1462.96 193.14
  Q 1467.77 179.89 1474.03 167.20
  A 0.83 0.80 -76.0 0 1 1474.75 166.75
  L 1524.00 166.75
  A 1.18 1.17 78.0 0 1 1525.07 167.45
  Q 1530.05 178.83 1534.64 190.41
  C 1537.37 197.32 1537.06 205.44 1527.51 205.71
  A 0.27 0.27 0.0 0 0 1527.29 206.12
  L 1527.72 206.84
  A 0.35 0.33 74.1 0 0 1528.01 207.01
  Q 1548.14 207.59 1568.27 206.95
  A 0.35 0.35 0.0 0 0 1568.37 206.26
  C 1558.35 203.18 1554.21 200.74 1549.31 189.94
  C 1533.38 154.80 1518.15 119.04 1501.28 84.36
  A 0.55 0.55 0.0 0 0 1500.41 84.20
  Q 1500.23 84.36 1500.20 84.68
  Q 1500.16 85.01 1500.10 85.17"
/>
<path stroke="#3a2c24" vector-effect="non-scaling-stroke" d="
  M 1383.52 93.28
  A 0.73 0.73 0.0 0 1 1384.25 94.01
  Q 1384.25 140.95 1384.25 187.69
  C 1384.25 198.01 1383.47 205.10 1371.69 205.65
  Q 1370.56 205.70 1370.51 206.76
  Q 1370.49 207.25 1370.98 207.25
  L 1410.26 207.25
  A 0.50 0.50 0.0 0 0 1410.38 206.27
  C 1401.20 204.11 1396.60 199.72 1396.54 189.90
  Q 1396.25 141.97 1397.24 94.02
  Q 1397.25 93.48 1397.78 93.44
  Q 1413.96 92.16 1433.25 93.28
  C 1442.76 93.83 1441.65 99.47 1444.25 106.43
  A 0.48 0.47 -54.8 0 0 1445.17 106.27
  L 1445.56 85.22
  A 0.70 0.70 0.0 0 0 1444.72 84.52
  Q 1433.72 86.89 1422.25 86.92
  Q 1389.82 87.02 1357.39 86.98
  C 1349.59 86.97 1343.44 86.17 1336.36 84.39
  A 0.82 0.82 0.0 0 0 1335.35 85.19
  L 1335.56 106.26
  A 0.57 0.57 0.0 0 0 1336.68 106.37
  C 1338.27 98.90 1339.77 93.33 1348.93 93.28
  Q 1366.39 93.18 1383.52 93.28"
/>
<path stroke="#3a2c24" vector-effect="non-scaling-stroke" d="
  M 1080.25 147.68
  C 1080.04 164.97 1082.40 184.25 1067.21 196.37
  C 1053.70 207.14 1028.28 208.20 1015.31 196.44
  C 1002.94 185.22 1002.06 170.10 1002.02 154.25
  Q 1001.97 128.75 1002.01 103.24
  C 1002.03 92.52 1004.58 90.22 1014.80 88.58
  A 0.54 0.54 0.0 0 0 1014.71 87.51
  L 977.72 87.53
  A 0.48 0.47 9.4 0 0 977.27 87.85
  Q 977.04 88.48 977.83 88.64
  C 983.83 89.87 989.67 90.80 989.86 98.42
  C 990.25 114.46 989.54 133.01 989.53 155.12
  C 989.52 188.38 1001.09 207.33 1036.18 209.89
  C 1060.64 211.67 1085.35 199.80 1088.67 172.99
  Q 1089.63 165.27 1089.69 157.50
  Q 1089.91 128.37 1089.75 99.25
  C 1089.71 90.91 1094.97 89.69 1101.79 88.61
  A 0.37 0.37 0.0 0 0 1101.83 87.88
  Q 1098.11 86.89 1093.99 86.83
  Q 1081.13 86.64 1068.16 87.72
  A 0.39 0.38 48.3 0 0 1068.12 88.48
  C 1073.05 89.52 1080.24 90.10 1080.32 97.50
  Q 1080.57 122.59 1080.25 147.68"
/>
<path stroke="#3a2c24" vector-effect="non-scaling-stroke" d="
  M 1159.66 87.66
  Q 1140.60 87.30 1121.53 87.60
  Q 1121.19 87.60 1121.03 87.77
  Q 1120.84 87.96 1120.78 88.24
  Q 1120.68 88.78 1121.22 88.81
  C 1126.09 89.11 1135.90 92.12 1136.51 97.50
  Q 1137.66 107.52 1137.20 122.50
  C 1136.52 144.80 1136.75 167.09 1136.75 189.40
  C 1136.75 201.37 1132.70 204.08 1121.44 206.05
  A 0.59 0.59 0.0 0 0 1121.54 207.23
  Q 1141.56 207.31 1161.81 207.20
  Q 1163.62 207.19 1165.04 206.39
  A 0.35 0.35 0.0 0 0 1164.88 205.74
  C 1157.13 205.34 1149.25 202.31 1149.25 193.75
  Q 1149.23 148.84 1149.26 103.94
  C 1149.27 91.69 1154.86 90.50 1165.24 88.40
  A 0.33 0.32 -42.4 0 0 1165.27 87.77
  C 1163.37 87.20 1161.07 87.69 1159.66 87.66"
/>
<path stroke="#6c5527" vector-effect="non-scaling-stroke" d="
  M 593.06 328.10
  C 581.48 376.45 599.03 432.37 647.89 453.35
  C 689.56 471.25 740.48 464.48 769.27 426.93
  C 770.85 424.86 773.77 420.42 774.07 418.51
  Q 776.50 403.04 777.26 374.16
  Q 777.27 373.71 776.84 373.83
  Q 775.52 374.18 775.37 375.43
  C 771.23 409.80 755.77 440.30 720.01 450.21
  C 696.94 456.61 671.75 454.78 651.58 441.85
  C 612.56 416.83 604.73 363.08 616.17 322.04
  C 625.63 288.13 650.75 263.78 686.96 261.20
  C 724.25 258.55 755.32 274.90 766.90 312.10
  A 0.69 0.69 0.0 0 0 768.20 312.15
  Q 768.81 310.63 768.54 308.80
  Q 765.77 290.52 763.29 272.52
  A 2.06 2.05 -78.9 0 0 762.30 271.04
  C 700.03 234.50 611.79 249.93 593.06 328.10"
/>
<path stroke="#6c5527" vector-effect="non-scaling-stroke" d="
  M 791.84 458.34
  L 845.17 458.57
  A 1.06 1.05 -38.0 0 0 845.43 456.49
  C 840.91 455.41 836.36 453.73 833.82 449.84
  C 830.40 444.57 832.68 440.29 835.27 433.93
  Q 842.07 417.22 849.40 400.55
  Q 849.64 400.00 850.24 400.00
  L 921.99 400.00
  A 1.54 1.53 78.9 0 1 923.41 400.96
  Q 930.38 417.90 937.40 435.27
  C 941.60 445.67 939.76 454.94 926.56 456.35
  A 0.71 0.71 0.0 0 0 925.93 457.08
  C 925.96 458.13 926.89 458.54 927.87 458.53
  Q 956.04 458.40 984.18 458.61
  Q 986.09 458.62 986.17 456.96
  Q 986.20 456.36 985.60 456.31
  C 967.72 454.85 962.06 441.12 955.63 426.89
  Q 922.80 354.24 889.73 281.49
  A 1.19 1.19 0.0 0 0 887.54 281.54
  C 882.37 294.47 877.91 306.36 871.59 319.87
  Q 845.18 376.31 818.77 432.75
  C 812.91 445.27 806.34 455.28 791.29 456.37
  Q 790.50 456.43 790.74 457.19
  L 790.88 457.63
  Q 791.10 458.34 791.84 458.34"
/>
<path stroke="#6c5527" vector-effect="non-scaling-stroke" d="
  M 1437.22 294.02
  Q 1464.75 293.97 1492.62 293.99
  Q 1499.36 293.99 1502.70 295.39
  Q 1512.03 299.28 1511.36 311.06
  C 1511.28 312.60 1512.09 313.56 1513.68 313.22
  A 0.73 0.72 84.1 0 0 1514.25 312.51
  L 1514.25 281.27
  Q 1514.25 280.77 1513.76 280.87
  C 1500.46 283.79 1488.42 285.25 1474.01 285.25
  Q 1435.94 285.24 1398.17 285.25
  A 1.03 1.03 0.0 0 0 1397.85 287.25
  C 1400.64 288.17 1404.32 288.08 1406.39 288.55
  C 1416.19 290.72 1418.19 299.81 1418.20 308.49
  Q 1418.30 369.13 1418.21 429.74
  C 1418.19 444.92 1416.38 456.71 1398.08 455.85
  Q 1397.27 455.81 1397.47 456.60
  L 1397.82 457.99
  Q 1397.97 458.56 1398.55 458.56
  L 1513.98 458.49
  A 1.59 1.57 9.9 0 0 1515.45 457.47
  L 1530.60 417.53
  A 0.75 0.75 0.0 0 0 1529.39 416.71
  C 1526.53 419.32 1524.45 424.55 1522.35 427.89
  C 1513.36 442.24 1501.07 449.57 1483.48 449.69
  Q 1460.47 449.84 1437.41 449.72
  Q 1436.88 449.71 1436.85 449.19
  C 1435.49 425.42 1436.51 400.90 1436.63 377.13
  A 0.57 0.57 0.0 0 1 1437.18 376.56
  Q 1459.98 375.60 1482.86 376.28
  C 1492.46 376.57 1499.24 379.42 1497.96 390.46
  A 1.73 1.73 0.0 0 0 1500.94 391.85
  Q 1501.04 391.75 1500.86 390.95
  Q 1500.75 390.46 1500.75 390.04
  Q 1500.73 370.77 1500.85 351.64
  A 0.99 0.98 55.3 0 0 1498.94 351.29
  C 1495.94 359.44 1497.74 367.41 1485.88 367.61
  Q 1461.34 368.04 1436.96 367.46
  A 0.48 0.47 1.3 0 1 1436.50 366.99
  L 1436.50 294.74
  A 0.72 0.72 0.0 0 1 1437.22 294.02"
/>
<path stroke="#6c5527" vector-effect="non-scaling-stroke" d="
  M 1597.58 399.70
  L 1668.43 400.07
  Q 1670.13 400.08 1670.82 401.63
  Q 1678.03 417.93 1684.11 433.81
  C 1688.03 444.06 1688.41 455.74 1674.14 455.91
  A 1.08 1.08 0.0 0 0 1673.39 457.76
  L 1673.69 458.06
  Q 1674.12 458.49 1674.72 458.49
  Q 1703.11 458.52 1731.50 458.49
  Q 1732.39 458.49 1732.75 458.10
  Q 1733.29 457.52 1732.89 456.51
  A 0.83 0.82 81.3 0 0 1732.19 455.99
  C 1719.26 454.91 1711.75 446.45 1706.72 435.29
  Q 1672.25 358.72 1636.98 281.39
  A 1.04 1.03 -38.8 0 0 1635.21 281.20
  Q 1634.64 281.95 1634.10 283.33
  C 1630.19 293.32 1626.39 303.23 1621.86 313.04
  Q 1593.89 373.68 1565.62 434.19
  C 1560.17 445.86 1552.44 455.05 1538.65 456.01
  Q 1538.06 456.05 1538.06 456.65
  L 1538.06 457.81
  Q 1538.06 458.50 1538.75 458.50
  L 1591.99 458.50
  A 1.22 1.22 0.0 0 0 1593.21 457.21
  Q 1593.13 455.80 1591.85 455.73
  C 1579.35 455.03 1578.36 444.83 1581.95 435.64
  Q 1588.97 417.66 1596.86 400.16
  A 0.79 0.79 0.0 0 1 1597.58 399.70"
/>
<path stroke="#6c5527" vector-effect="non-scaling-stroke" d="
  M 1000.53 288.02
  C 1010.80 288.74 1020.23 290.74 1020.24 303.26
  Q 1020.27 368.72 1020.23 434.20
  C 1020.22 449.25 1016.36 455.46 1000.61 456.05
  Q 1000.09 456.07 1000.07 456.59
  L 1000.00 457.96
  Q 999.98 458.50 1000.52 458.50
  L 1058.13 458.50
  Q 1058.62 458.50 1058.98 458.15
  L 1059.29 457.84
  A 0.93 0.93 0.0 0 0 1058.69 456.26
  C 1048.64 455.57 1039.58 452.03 1039.34 440.24
  Q 1038.80 414.01 1039.03 348.07
  C 1039.08 332.71 1039.44 313.27 1038.92 295.57
  A 1.08 1.07 -3.4 0 1 1039.90 294.47
  C 1063.76 292.39 1103.41 290.60 1109.73 322.25
  C 1113.39 340.61 1107.13 361.60 1088.00 368.51
  Q 1082.64 370.45 1071.25 371.04
  Q 1060.36 371.60 1049.60 371.50
  A 0.95 0.95 0.0 0 0 1049.40 373.39
  Q 1065.25 376.63 1075.42 389.58
  Q 1085.03 401.81 1100.54 423.52
  Q 1108.90 435.22 1112.83 439.27
  Q 1135.22 462.34 1169.56 457.89
  A 0.99 0.99 0.0 0 0 1169.51 455.93
  C 1156.97 454.95 1147.36 448.68 1139.07 439.43
  Q 1120.70 418.96 1103.73 395.74
  C 1099.01 389.28 1094.10 384.77 1087.98 380.37
  A 0.66 0.66 0.0 0 1 1088.27 379.19
  C 1114.52 375.39 1133.16 354.54 1131.14 327.31
  C 1129.09 299.71 1103.75 285.87 1078.75 285.46
  Q 1050.35 285.00 1001.78 285.31
  C 1000.49 285.32 999.75 286.00 999.82 287.30
  A 0.77 0.75 0.9 0 0 1000.53 288.02"
/>
<path stroke="#6c5527" vector-effect="non-scaling-stroke" d="
  M 1181.86 287.24
  C 1185.34 287.72 1189.33 287.89 1192.25 289.06
  C 1201.20 292.64 1201.98 303.11 1201.98 311.50
  Q 1202.03 373.88 1201.98 436.27
  C 1201.97 448.41 1195.61 456.82 1182.53 455.76
  Q 1181.93 455.72 1181.82 456.31
  L 1181.55 457.90
  A 0.54 0.53 4.9 0 0 1182.08 458.52
  Q 1223.61 458.34 1265.13 458.91
  C 1276.82 459.08 1287.76 458.37 1298.50 456.98
  C 1349.88 450.31 1377.41 406.69 1370.03 356.75
  Q 1363.38 311.79 1322.43 293.30
  C 1308.42 286.97 1293.17 285.30 1276.44 285.28
  Q 1229.20 285.21 1181.95 285.27
  A 0.70 0.70 0.0 0 0 1181.25 285.97
  L 1181.25 286.54
  Q 1181.25 287.16 1181.86 287.24"
/>
<path stroke="#6c5527" vector-effect="non-scaling-stroke" d="
  M 1749.11 287.94
  Q 1767.92 287.72 1768.00 306.74
  Q 1768.27 369.62 1768.23 432.50
  C 1768.23 443.10 1766.59 453.95 1753.90 455.54
  C 1752.37 455.73 1750.47 455.29 1748.73 455.59
  A 1.47 1.47 0.0 0 0 1748.98 458.50
  L 1864.30 458.50
  A 1.03 1.02 10.3 0 0 1865.26 457.84
  Q 1872.78 438.31 1879.79 419.17
  Q 1880.28 417.84 1879.50 417.15
  A 0.78 0.78 0.0 0 0 1878.29 417.37
  C 1868.47 436.66 1857.69 448.51 1834.25 449.31
  Q 1810.60 450.11 1786.99 449.64
  Q 1786.73 449.63 1786.73 449.38
  Q 1786.77 387.08 1786.73 326.26
  C 1786.72 310.68 1782.47 287.29 1805.40 287.86
  C 1806.25 287.88 1807.06 287.34 1807.40 286.63
  A 0.97 0.97 0.0 0 0 1806.52 285.25
  L 1748.48 285.25
  Q 1747.94 285.25 1747.66 285.72
  Q 1747.08 286.69 1748.19 287.61
  A 1.45 1.44 -25.1 0 0 1749.11 287.94"
/>
<path stroke="#3a2c24" vector-effect="non-scaling-stroke" d="
  M 1880.39 492.82
  A 0.57 0.57 0.0 0 0 1879.82 492.25
  L 590.36 492.25
  A 0.57 0.57 0.0 0 0 589.79 492.82
  L 589.79 497.18
  A 0.57 0.57 0.0 0 0 590.36 497.75
  L 1879.82 497.75
  A 0.57 0.57 0.0 0 0 1880.39 497.18
  L 1880.39 492.82"
/>
<path stroke="#3a2c24" vector-effect="non-scaling-stroke" d="
  M 1152.29 510.85
  C 1156.29 512.51 1163.58 515.17 1164.42 508.17
  Q 1164.47 507.69 1164.00 507.58
  Q 1162.61 507.28 1162.13 508.66
  C 1161.49 510.54 1160.70 510.79 1158.82 510.18
  C 1154.73 508.86 1147.85 505.95 1147.56 513.33
  Q 1147.53 514.16 1148.14 513.60
  L 1150.83 511.11
  A 1.38 1.37 -54.9 0 1 1152.29 510.85"
/>
<path stroke="#3a2c24" vector-effect="non-scaling-stroke" d="
  M 1798.9647 555.6392
  A 19.96 18.32 97.5 0 0 1819.7333 538.2412
  A 19.96 18.32 97.5 0 0 1804.1753 516.0608
  A 19.96 18.32 97.5 0 0 1783.4067 533.4588
  A 19.96 18.32 97.5 0 0 1798.9647 555.6392"
/>
<path stroke="#3a2c24" vector-effect="non-scaling-stroke" d="
  M 606.2692 555.7611
  A 19.92 18.37 95.1 0 0 626.3373 537.5530
  A 19.92 18.37 95.1 0 0 609.8108 516.0789
  A 19.92 18.37 95.1 0 0 589.7427 534.2870
  A 19.92 18.37 95.1 0 0 606.2692 555.7611"
/>
<path stroke="#3a2c24" vector-effect="non-scaling-stroke" d="
  M 1217.4533 555.6655
  A 19.95 18.42 96.9 0 0 1238.1366 538.0729
  A 19.95 18.42 96.9 0 0 1222.2467 516.0545
  A 19.95 18.42 96.9 0 0 1201.5634 533.6471
  A 19.95 18.42 96.9 0 0 1217.4533 555.6655"
/>
<path stroke="#3a2c24" vector-effect="non-scaling-stroke" d="
  M 732.88 554.11
  Q 742.31 557.91 751.02 550.86
  A 0.66 0.66 0.0 0 1 752.07 551.21
  Q 752.64 553.49 754.41 555.00
  A 0.96 0.96 0.0 0 0 756.00 554.27
  L 756.00 535.36
  Q 756.00 534.71 755.36 534.72
  L 740.59 534.82
  Q 739.95 534.83 739.92 535.47
  L 739.80 537.83
  Q 739.77 538.64 740.58 538.65
  L 749.74 538.80
  Q 751.83 538.83 751.62 540.91
  C 750.83 548.81 745.14 552.39 737.54 551.38
  C 721.60 549.27 723.74 523.76 738.43 520.48
  Q 745.98 518.80 750.34 526.62
  C 751.47 528.65 752.77 529.10 754.90 528.29
  Q 755.34 528.12 755.24 527.65
  Q 753.82 520.73 748.04 518.18
  C 723.46 507.32 711.92 545.65 732.88 554.11"
/>
<path stroke="#3a2c24" vector-effect="non-scaling-stroke" d="
  M 1094.24 562.48
  C 1092.08 565.22 1089.02 563.03 1086.61 564.79
  A 0.45 0.45 0.0 0 0 1086.74 565.58
  C 1093.14 567.61 1103.76 563.06 1092.77 557.37
  A 0.96 0.96 0.0 0 1 1093.16 555.56
  Q 1105.93 554.84 1108.59 542.20
  Q 1108.76 541.41 1107.96 541.38
  L 1105.97 541.32
  A 0.73 0.71 10.3 0 0 1105.26 541.80
  C 1102.61 549.35 1094.66 554.55 1087.18 550.13
  C 1073.97 542.34 1081.67 511.93 1100.66 522.27
  Q 1101.12 522.52 1101.38 522.98
  Q 1103.13 526.11 1105.77 528.48
  A 1.40 1.40 0.0 0 0 1108.06 527.07
  Q 1105.08 516.09 1093.52 516.45
  C 1071.53 517.12 1069.59 550.14 1090.23 555.85
  A 0.60 0.60 0.0 0 1 1090.50 556.84
  L 1089.02 558.38
  A 1.14 1.14 0.0 0 0 1090.07 560.29
  Q 1092.54 559.77 1094.21 561.57
  A 0.71 0.70 -47.1 0 1 1094.24 562.48"
/>
<path stroke="#3a2c24" vector-effect="non-scaling-stroke" d="
  M 1857.67 529.96
  C 1855.64 525.32 1857.85 521.33 1862.75 520.37
  Q 1871.53 518.65 1875.88 527.68
  A 1.30 1.29 -14.9 0 0 1877.15 528.41
  C 1878.91 528.28 1879.43 526.87 1879.18 525.26
  C 1876.80 510.19 1845.90 515.65 1853.41 531.51
  C 1855.68 536.30 1867.82 538.44 1872.75 539.97
  C 1877.27 541.36 1877.34 545.98 1874.29 548.93
  C 1867.86 555.15 1857.43 551.58 1855.10 542.90
  Q 1854.94 542.31 1854.35 542.43
  L 1852.10 542.89
  Q 1851.52 543.01 1851.55 543.61
  C 1852.38 559.85 1881.40 560.20 1880.32 543.20
  C 1879.71 533.51 1865.49 533.15 1858.42 530.64
  A 1.29 1.29 0.0 0 1 1857.67 529.96"
/>
<path stroke="#3a2c24" vector-effect="non-scaling-stroke" d="
  M 681.04 539.40
  C 684.62 541.90 684.59 549.10 684.22 553.02
  Q 684.06 554.70 685.72 554.96
  L 689.21 555.50
  Q 689.79 555.59 689.76 555.00
  C 689.38 548.26 689.16 540.94 685.35 536.98
  A 1.22 1.22 0.0 0 1 685.40 535.24
  C 692.82 528.41 689.09 518.42 679.43 517.28
  Q 669.59 516.11 659.96 517.58
  A 0.82 0.81 80.5 0 0 659.28 518.54
  Q 659.69 520.71 659.55 522.94
  Q 658.63 537.66 659.55 552.35
  C 659.67 554.17 661.06 555.70 663.02 555.03
  A 1.84 1.83 -9.7 0 0 664.25 553.30
  L 664.25 541.00
  Q 664.25 538.61 666.64 538.70
  C 669.94 538.82 678.92 537.92 681.04 539.40"
/>
<path stroke="#3a2c24" vector-effect="non-scaling-stroke" d="
  M 788.68 554.69
  Q 792.24 555.84 793.02 553.26
  Q 794.40 548.71 796.14 544.08
  Q 796.36 543.50 796.99 543.50
  L 811.32 543.50
  A 0.83 0.82 80.6 0 1 812.10 544.06
  L 815.59 554.39
  A 0.92 0.91 -9.3 0 0 816.46 555.01
  L 819.95 554.96
  A 0.64 0.64 0.0 0 0 820.54 554.10
  Q 814.11 536.76 807.76 519.40
  C 806.60 516.23 802.30 515.64 801.04 519.02
  Q 794.50 536.54 788.13 553.57
  A 0.86 0.86 0.0 0 0 788.68 554.69"
/>
<path stroke="#3a2c24" vector-effect="non-scaling-stroke" d="
  M 858.21 525.62
  Q 866.51 538.27 874.30 551.23
  C 876.04 554.12 877.52 555.68 880.95 554.90
  Q 882.25 554.60 882.26 552.50
  Q 882.27 535.25 881.98 517.98
  Q 881.97 517.34 881.33 517.32
  L 878.34 517.27
  Q 877.75 517.26 877.75 517.85
  L 877.75 546.25
  A 0.74 0.74 0.0 0 1 876.93 546.99
  Q 876.64 546.96 876.31 546.44
  Q 867.88 533.26 859.73 519.93
  C 857.96 517.05 855.47 515.67 852.40 517.46
  A 0.96 0.95 74.8 0 0 851.92 518.31
  L 852.26 554.47
  Q 852.26 555.18 852.97 555.14
  L 856.29 554.97
  A 0.76 0.75 88.4 0 0 857.00 554.21
  L 857.00 525.99
  A 0.66 0.66 0.0 0 1 858.21 525.62"
/>
<path stroke="#3a2c24" vector-effect="non-scaling-stroke" d="
  M 1163.22 544.11
  C 1164.33 547.37 1165.60 553.59 1168.97 555.15
  A 1.75 1.75 0.0 0 0 1171.34 552.96
  L 1158.74 518.28
  A 1.49 1.48 83.5 0 0 1157.52 517.30
  L 1153.84 516.82
  Q 1153.27 516.74 1153.06 517.29
  L 1139.32 553.57
  A 1.12 1.12 0.0 0 0 1140.27 555.08
  C 1144.95 555.47 1146.29 547.87 1147.22 543.91
  A 0.77 0.76 7.0 0 1 1147.98 543.32
  L 1162.43 543.54
  A 0.85 0.84 -8.7 0 1 1163.22 544.11"
/>
<path stroke="#3a2c24" vector-effect="non-scaling-stroke" d="
  M 1550.68 552.57
  C 1551.77 555.52 1555.73 555.86 1557.01 552.53
  Q 1563.55 535.47 1569.65 518.24
  Q 1569.90 517.53 1569.16 517.36
  L 1566.00 516.65
  A 1.01 1.01 0.0 0 0 1564.82 517.31
  L 1554.53 547.52
  A 0.69 0.69 0.0 0 1 1553.48 547.86
  C 1553.31 547.74 1553.06 547.45 1552.98 547.23
  Q 1548.09 533.71 1543.73 520.00
  Q 1542.53 516.22 1538.65 517.10
  A 0.63 0.63 0.0 0 0 1538.19 517.92
  Q 1544.27 535.23 1550.68 552.57"
/>
<path stroke="#3a2c24" vector-effect="non-scaling-stroke" d="
  M 1312.02 518.51
  L 1311.96 553.43
  A 1.62 1.62 0.0 0 0 1313.58 555.06
  L 1325.43 555.08
  A 17.76 17.55 -89.9 0 0 1343.01 537.35
  L 1343.01 534.71
  A 17.76 17.55 -89.9 0 0 1325.49 516.92
  L 1313.64 516.90
  A 1.62 1.62 0.0 0 0 1312.02 518.51"
/>
<path stroke="#3a2c24" vector-effect="non-scaling-stroke" d="
  M 1484.02 522.41
  A 0.58 0.58 0.0 0 1 1484.59 521.81
  L 1505.94 521.25
  A 0.58 0.58 0.0 0 0 1506.50 520.67
  L 1506.50 517.64
  A 0.58 0.58 0.0 0 0 1505.91 517.06
  L 1479.98 517.40
  A 0.58 0.58 0.0 0 0 1479.41 517.98
  L 1479.18 553.92
  A 0.58 0.58 0.0 0 0 1479.76 554.50
  L 1505.72 554.50
  A 0.58 0.58 0.0 0 0 1506.29 554.03
  L 1506.85 551.14
  A 0.58 0.58 0.0 0 0 1506.28 550.45
  L 1484.49 550.63
  A 0.58 0.58 0.0 0 1 1483.91 550.04
  L 1484.28 537.81
  A 0.58 0.58 0.0 0 1 1484.86 537.25
  L 1504.67 537.25
  A 0.58 0.58 0.0 0 0 1505.25 536.67
  L 1505.25 533.74
  A 0.58 0.58 0.0 0 0 1504.66 533.16
  L 1484.84 533.53
  A 0.58 0.58 0.0 0 1 1484.25 532.96
  L 1484.02 522.41"
/>
<path stroke="#3a2c24" vector-effect="non-scaling-stroke" d="
  M 1742.00 522.09
  A 0.83 0.83 0.0 0 1 1742.83 521.26
  L 1753.80 521.25
  A 0.83 0.83 0.0 0 0 1754.60 520.66
  L 1755.28 518.34
  A 0.83 0.83 0.0 0 0 1754.48 517.28
  L 1725.08 517.20
  A 0.83 0.83 0.0 0 0 1724.27 518.21
  L 1724.69 520.14
  A 0.83 0.83 0.0 0 0 1725.47 520.79
  L 1736.50 521.29
  A 0.83 0.83 0.0 0 1 1737.29 522.13
  L 1736.93 553.58
  A 0.83 0.83 0.0 0 0 1737.60 554.41
  L 1741.02 555.05
  A 0.83 0.83 0.0 0 0 1742.00 554.24
  L 1742.00 522.09"
/>
<path stroke="#3a2c24" vector-effect="non-scaling-stroke" d="
  M 922.3235 517.9277
  A 0.66 0.66 0.0 0 0 921.6658 517.2654
  L 918.6258 517.2548
  A 0.66 0.66 0.0 0 0 917.9635 517.9125
  L 917.8365 554.3123
  A 0.66 0.66 0.0 0 0 918.4942 554.9746
  L 921.5342 554.9852
  A 0.66 0.66 0.0 0 0 922.1965 554.3275
  L 922.3235 517.9277"
/>
<path stroke="#3a2c24" vector-effect="non-scaling-stroke" d="
  M 977.36 521.26
  A 0.50 0.50 0.0 0 1 977.74 522.08
  Q 969.85 531.38 962.24 541.01
  Q 957.52 546.99 954.97 553.22
  Q 954.30 554.85 956.06 554.83
  L 983.89 554.48
  Q 984.50 554.48 984.50 553.86
  L 984.50 551.39
  Q 984.50 550.79 983.89 550.78
  L 962.26 550.68
  A 0.76 0.75 -70.4 0 1 961.68 549.45
  Q 971.84 536.72 982.06 523.83
  Q 983.83 521.60 984.93 519.17
  A 1.34 1.34 0.0 0 0 983.72 517.28
  L 957.18 517.23
  Q 956.52 517.23 956.52 517.89
  L 956.49 520.74
  Q 956.49 521.24 956.99 521.24
  L 977.36 521.26"
/>
<path stroke="#3a2c24" vector-effect="non-scaling-stroke" d="
  M 1013.64 554.52
  L 1016.75 555.20
  Q 1017.43 555.34 1017.68 554.69
  L 1021.59 544.36
  Q 1021.82 543.75 1022.47 543.75
  L 1036.73 543.75
  A 0.78 0.78 0.0 0 1 1037.47 544.28
  L 1040.96 554.11
  A 0.80 0.79 84.1 0 0 1041.62 554.65
  L 1045.38 555.09
  A 0.56 0.55 83.7 0 0 1045.97 554.35
  L 1033.38 519.29
  A 3.70 3.70 0.0 0 0 1026.44 519.23
  L 1013.31 553.91
  A 0.46 0.46 0.0 0 0 1013.64 554.52"
/>
<path stroke="#3a2c24" vector-effect="non-scaling-stroke" d="
  M 1376.74 554.03
  A 0.81 0.81 0.0 0 0 1377.56 554.83
  L 1403.64 554.47
  A 0.81 0.81 0.0 0 0 1404.43 553.75
  L 1404.68 551.61
  A 0.81 0.81 0.0 0 0 1403.88 550.71
  L 1382.05 550.48
  A 0.81 0.81 0.0 0 1 1381.25 549.67
  L 1381.25 538.06
  A 0.81 0.81 0.0 0 1 1382.06 537.25
  L 1402.03 537.25
  A 0.81 0.81 0.0 0 0 1402.82 536.29
  L 1402.42 534.11
  A 0.81 0.81 0.0 0 0 1401.62 533.44
  L 1382.06 533.53
  A 0.81 0.81 0.0 0 1 1381.25 532.72
  L 1381.25 522.74
  A 0.81 0.81 0.0 0 1 1382.04 521.93
  L 1403.38 521.29
  A 0.81 0.81 0.0 0 0 1404.16 520.59
  L 1404.49 518.17
  A 0.81 0.81 0.0 0 0 1403.68 517.25
  L 1377.26 517.25
  A 0.81 0.81 0.0 0 0 1376.45 518.07
  L 1376.74 554.03"
/>
<path stroke="#3a2c24" vector-effect="non-scaling-stroke" d="
  M 1607.47 537.25
  L 1627.33 537.25
  Q 1628.17 537.25 1628.07 536.41
  L 1627.76 533.98
  Q 1627.66 533.25 1626.92 533.25
  L 1607.66 533.25
  A 0.65 0.65 0.0 0 1 1607.01 532.60
  L 1607.00 522.53
  A 0.53 0.52 -3.1 0 1 1607.47 522.01
  Q 1617.10 520.92 1626.81 521.28
  C 1629.05 521.37 1630.31 520.49 1629.60 518.08
  A 1.17 1.16 81.6 0 0 1628.49 517.25
  L 1602.75 517.25
  A 0.75 0.75 0.0 0 0 1602.00 518.00
  L 1602.00 554.00
  A 0.50 0.50 0.0 0 0 1602.50 554.50
  L 1629.25 554.50
  Q 1630.00 554.50 1630.00 553.75
  L 1630.00 551.38
  Q 1630.00 550.75 1629.38 550.74
  L 1607.99 550.42
  A 0.96 0.95 0.3 0 1 1607.05 549.48
  L 1606.88 537.84
  A 0.59 0.59 0.0 0 1 1607.47 537.25"
/>
<path stroke="#3a2c24" vector-effect="non-scaling-stroke" d="
  M 1667.82 526.89
  A 1.01 1.01 0.0 0 1 1669.67 526.35
  Q 1677.88 538.77 1685.14 550.87
  C 1686.96 553.91 1688.91 555.73 1692.45 554.55
  Q 1693.00 554.37 1693.00 553.79
  L 1693.00 518.08
  Q 1693.00 517.41 1692.33 517.38
  L 1689.19 517.22
  A 0.66 0.66 0.0 0 0 1688.49 517.88
  L 1688.52 547.01
  A 0.27 0.26 -83.9 0 1 1688.20 547.27
  Q 1687.47 547.10 1687.05 546.44
  Q 1678.13 532.21 1669.34 517.86
  Q 1669.05 517.39 1668.50 517.37
  L 1664.11 517.24
  Q 1663.50 517.22 1663.50 517.83
  L 1663.50 554.27
  Q 1663.50 554.74 1663.93 554.91
  C 1666.57 555.98 1667.84 554.82 1667.78 552.05
  Q 1667.53 539.16 1667.82 526.89"
/>
<path stroke="#3a2c24" vector-effect="non-scaling-stroke" d="
  M 262.20 572.34
  C 268.52 574.42 277.88 578.83 284.03 577.00
  Q 311.24 568.89 338.54 561.15
  C 376.27 550.45 410.08 531.31 409.25 486.50
  A 0.93 0.93 0.0 0 1 410.19 485.55
  C 424.61 485.72 437.99 484.13 448.12 473.28
  C 462.92 457.42 462.31 427.64 462.54 407.32
  C 462.93 374.26 467.63 340.46 475.27 309.75
  C 489.80 251.38 504.90 192.64 506.94 132.17
  Q 506.98 130.91 505.73 130.86
  Q 451.74 128.56 405.60 101.44
  C 384.76 89.18 363.56 75.62 342.20 66.29
  C 300.36 48.01 251.60 50.62 211.21 69.54
  Q 205.22 72.34 193.61 79.01
  C 164.91 95.50 143.43 108.92 115.94 119.21
  C 96.64 126.43 76.21 129.97 55.59 130.67
  Q 53.72 130.74 53.78 132.61
  C 55.00 169.52 60.25 206.09 69.01 242.29
  C 82.05 296.13 96.69 348.97 97.99 404.80
  Q 98.40 422.11 98.54 424.56
  C 99.42 438.95 100.67 455.60 108.28 467.71
  C 117.50 482.40 134.49 487.00 150.71 485.22
  A 0.90 0.90 0.0 0 1 151.71 486.11
  C 151.78 493.59 151.80 501.93 153.86 508.85
  C 165.58 548.16 216.56 560.58 251.07 569.18
  Q 257.39 570.76 262.20 572.34"
/>
<path stroke="#6c5527" vector-effect="non-scaling-stroke" d="
  M 397.46 473.50
  C 412.92 473.61 437.45 476.68 444.27 457.70
  C 451.68 437.08 450.63 413.10 451.39 390.99
  C 453.16 340.13 467.42 291.01 479.33 241.91
  C 487.23 209.35 492.45 176.56 494.64 143.25
  A 0.95 0.95 0.0 0 0 493.81 142.25
  C 467.34 138.95 441.27 132.62 417.21 121.01
  C 391.93 108.81 369.33 91.69 343.68 79.83
  C 302.84 60.93 256.52 61.37 215.48 80.29
  Q 209.23 83.18 197.87 89.76
  Q 171.66 104.94 160.92 111.39
  Q 117.19 137.67 66.49 142.14
  A 0.67 0.67 0.0 0 0 65.88 142.85
  Q 68.65 185.26 78.12 226.72
  C 89.56 276.85 103.50 326.50 108.58 377.85
  C 111.11 403.32 108.37 428.73 115.23 453.74
  C 121.44 476.38 144.65 474.23 162.69 473.43
  A 0.81 0.81 0.0 0 1 163.54 474.26
  C 163.34 484.23 162.88 496.19 165.30 505.03
  C 172.34 530.84 200.99 542.28 224.32 548.92
  Q 251.37 556.63 278.37 564.48
  Q 281.18 565.30 283.98 564.43
  Q 310.71 556.06 337.71 548.62
  C 361.36 542.11 392.47 528.31 396.27 500.51
  C 397.54 491.19 397.74 482.39 396.70 474.36
  A 0.77 0.76 -3.9 0 1 397.46 473.50"
/>
<path stroke="#3a2c24" vector-effect="non-scaling-stroke" d="
  M 843.69 89.69
  C 831.76 104.51 827.63 122.26 828.35 141.01
  C 829.31 165.72 841.36 192.20 866.45 200.77
  Q 892.38 209.63 913.84 196.33
  C 936.72 182.16 943.32 154.31 941.62 129.26
  C 940.07 106.39 929.24 84.21 907.48 74.90
  C 885.94 65.70 858.68 71.06 843.69 89.69"
/>
<path stroke="#6c5527" vector-effect="non-scaling-stroke" d="
  M 266.18 425.78
  Q 296.78 426.24 325.18 414.56
  A 0.74 0.73 -43.0 0 0 325.23 413.22
  L 314.06 407.73
  A 3.31 3.27 48.9 0 0 311.64 407.55
  C 253.54 426.13 189.42 406.79 172.93 342.38
  C 153.84 267.84 191.06 187.72 278.52 196.40
  C 319.68 200.49 350.17 218.69 361.67 259.98
  Q 361.98 261.12 362.46 261.79
  A 1.42 1.42 0.0 0 0 365.03 260.80
  Q 362.28 236.72 357.56 212.49
  Q 357.03 209.72 355.78 207.24
  Q 355.56 206.79 355.10 206.55
  C 308.24 182.29 246.00 175.15 198.06 200.03
  C 148.66 225.67 132.41 284.70 143.34 336.07
  C 156.40 397.49 207.14 424.90 266.18 425.78"
/>
<path stroke="#6c5527" vector-effect="non-scaling-stroke" d="
  M 278.15 374.76
  C 306.29 367.86 323.84 347.81 328.22 319.82
  C 334.47 279.96 311.91 244.07 270.58 239.05
  C 234.66 234.68 203.43 253.56 195.00 289.42
  C 186.43 325.92 202.34 361.67 238.93 373.53
  Q 246.09 375.86 252.25 376.50
  C 269.80 378.33 285.21 383.90 301.21 392.02
  C 317.58 400.32 333.96 409.60 351.49 415.22
  C 380.28 424.46 415.33 418.06 433.35 392.04
  Q 433.53 391.77 433.54 391.50
  Q 433.55 391.09 433.44 390.89
  A 0.83 0.82 -33.1 0 0 432.18 390.63
  C 416.15 403.89 395.13 408.92 374.18 407.12
  C 359.22 405.83 346.36 401.35 332.51 395.73
  Q 305.55 384.78 278.13 375.21
  A 0.24 0.23 47.6 0 1 278.15 374.76"
/>
<path stroke="#6c5527" vector-effect="non-scaling-stroke" d="
  M 343.62 392.26
  Q 349.18 394.10 354.99 395.77
  A 0.95 0.94 -56.0 0 0 355.83 395.60
  Q 365.07 388.15 370.23 380.46
  C 373.11 376.17 372.95 371.42 373.40 366.29
  Q 375.17 345.89 376.85 325.49
  Q 377.03 323.25 374.41 323.48
  A 1.28 1.27 89.0 0 0 373.24 324.70
  Q 371.55 363.97 342.97 390.30
  A 0.81 0.73 -8.3 0 0 342.82 390.48
  Q 342.11 391.75 343.62 392.26"
/>
<path stroke="#3a2c24" vector-effect="non-scaling-stroke" d="
  M 1477.12 159.45
  A 0.70 0.70 0.0 0 0 1477.76 160.43
  L 1521.27 160.58
  A 0.70 0.70 0.0 0 0 1521.92 159.61
  L 1500.35 107.65
  A 0.70 0.70 0.0 0 0 1499.06 107.64
  L 1477.12 159.45"
/>
<path stroke="#6c5527" vector-effect="non-scaling-stroke" d="
  M 257.69 370.81
  C 330.25 375.65 333.76 254.14 270.27 244.79
  C 191.48 233.20 184.58 365.94 257.69 370.81"
/>
<path stroke="#6c5527" vector-effect="non-scaling-stroke" d="
  M 853.81 390.14
  A 0.72 0.72 0.0 0 0 854.47 391.13
  L 918.36 391.36
  A 0.72 0.72 0.0 0 0 919.03 390.36
  L 887.35 313.42
  A 0.72 0.72 0.0 0 0 886.02 313.41
  L 853.81 390.14"
/>
<path stroke="#6c5527" vector-effect="non-scaling-stroke" d="
  M 1601.02 390.07
  A 0.77 0.77 0.0 0 0 1601.73 391.14
  L 1665.60 391.47
  A 0.77 0.77 0.0 0 0 1666.31 390.41
  L 1634.78 313.42
  A 0.77 0.77 0.0 0 0 1633.36 313.41
  L 1601.02 390.07"
/>
<path stroke="#6c5527" vector-effect="non-scaling-stroke" d="
  M 1220.62 295.03
  L 1220.88 448.63
  A 1.37 1.37 0.0 0 0 1222.26 450.00
  L 1279.69 449.90
  A 70.81 70.80 89.9 0 0 1350.36 378.97
  L 1350.34 364.25
  A 70.81 70.80 89.9 0 0 1279.41 293.56
  L 1221.98 293.66
  A 1.37 1.37 0.0 0 0 1220.62 295.03"
/>
<path stroke="#3a2c24" vector-effect="non-scaling-stroke" d="
  M 1801.3433 551.5994
  A 15.67 13.41 90.5 0 0 1814.8895 536.0470
  A 15.67 13.41 90.5 0 0 1801.6167 520.2606
  A 15.67 13.41 90.5 0 0 1788.0705 535.8130
  A 15.67 13.41 90.5 0 0 1801.3433 551.5994"
/>
<path stroke="#3a2c24" vector-effect="non-scaling-stroke" d="
  M 607.3573 551.8338
  A 15.71 13.33 92.6 0 0 621.3863 536.7447
  A 15.71 13.33 92.6 0 0 608.7827 520.4462
  A 15.71 13.33 92.6 0 0 594.7537 535.5353
  A 15.71 13.33 92.6 0 0 607.3573 551.8338"
/>
<path stroke="#3a2c24" vector-effect="non-scaling-stroke" d="
  M 1219.0600 551.8326
  A 15.71 13.23 92.7 0 0 1233.0153 536.7632
  A 15.71 13.23 92.7 0 0 1220.5400 520.4474
  A 15.71 13.23 92.7 0 0 1206.5847 535.5168
  A 15.71 13.23 92.7 0 0 1219.0600 551.8326"
/>
<path stroke="#3a2c24" vector-effect="non-scaling-stroke" d="
  M 664.51 522.06
  L 664.49 533.68
  A 0.56 0.56 0.0 0 0 665.05 534.24
  L 678.03 534.27
  A 6.22 5.73 0.1 0 0 684.26 528.55
  L 684.26 527.27
  A 6.22 5.73 0.1 0 0 678.05 521.53
  L 665.07 521.50
  A 0.56 0.56 0.0 0 0 664.51 522.06"
/>
<path stroke="#3a2c24" vector-effect="non-scaling-stroke" d="
  M 798.26 538.32
  A 0.84 0.84 0.0 0 0 799.04 539.46
  L 808.97 539.55
  A 0.84 0.84 0.0 0 0 809.76 538.42
  L 804.92 524.93
  A 0.84 0.84 0.0 0 0 803.34 524.91
  L 798.26 538.32"
/>
<path stroke="#3a2c24" vector-effect="non-scaling-stroke" d="
  M 1149.58 538.45
  A 0.74 0.74 0.0 0 0 1150.27 539.45
  L 1160.45 539.55
  A 0.74 0.74 0.0 0 0 1161.16 538.57
  L 1156.21 524.40
  A 0.74 0.74 0.0 0 0 1154.82 524.38
  L 1149.58 538.45"
/>
<path stroke="#3a2c24" vector-effect="non-scaling-stroke" d="
  M 1316.94 522.82
  L 1317.26 549.19
  A 1.43 1.43 0.0 0 0 1318.71 550.61
  L 1326.34 550.51
  A 11.36 11.09 -0.7 0 0 1337.56 539.29
  L 1337.48 532.23
  A 11.36 11.09 -0.7 0 0 1325.98 521.28
  L 1318.35 521.37
  A 1.43 1.43 0.0 0 0 1316.94 522.82"
/>
<path stroke="#3a2c24" vector-effect="non-scaling-stroke" d="
  M 1023.98 538.54
  A 0.67 0.67 0.0 0 0 1024.60 539.43
  L 1034.40 539.57
  A 0.67 0.67 0.0 0 0 1035.05 538.70
  L 1030.35 524.13
  A 0.67 0.67 0.0 0 0 1029.08 524.11
  L 1023.98 538.54"
/>
</g>
<path fill="#735747" d="
  M 479.41 366.09
  C 476.85 383.40 476.67 401.27 476.44 418.75
  C 475.95 454.79 468.36 495.10 424.14 498.90
  A 1.70 1.69 0.8 0 0 422.60 500.39
  C 417.32 545.23 378.37 564.30 339.73 575.20
  Q 313.51 582.60 287.48 590.69
  Q 281.58 592.52 273.25 590.22
  Q 246.45 582.81 219.77 574.95
  C 182.83 564.07 141.53 544.30 138.25 500.37
  A 1.50 1.50 0.0 0 0 136.88 498.99
  C 85.90 494.61 85.25 444.97 84.03 406.75
  C 83.09 376.87 79.12 347.15 72.59 317.98
  C 64.27 280.80 55.25 247.85 49.08 216.04
  Q 39.69 167.68 39.34 118.42
  A 1.16 1.13 72.4 0 1 39.81 117.49
  Q 40.84 116.75 42.68 116.79
  C 80.44 117.70 115.45 107.76 148.08 88.64
  Q 167.03 77.54 186.03 66.52
  C 225.83 43.44 271.10 33.54 316.49 43.52
  C 349.96 50.87 375.87 66.35 407.31 85.69
  Q 418.74 92.72 424.60 95.71
  C 454.82 111.13 487.32 116.57 520.59 116.86
  A 0.62 0.62 0.0 0 1 521.20 117.48
  Q 521.10 180.12 506.15 241.08
  C 495.98 282.52 485.65 323.83 479.41 366.09
  Z
  M 262.20 572.34
  C 268.52 574.42 277.88 578.83 284.03 577.00
  Q 311.24 568.89 338.54 561.15
  C 376.27 550.45 410.08 531.31 409.25 486.50
  A 0.93 0.93 0.0 0 1 410.19 485.55
  C 424.61 485.72 437.99 484.13 448.12 473.28
  C 462.92 457.42 462.31 427.64 462.54 407.32
  C 462.93 374.26 467.63 340.46 475.27 309.75
  C 489.80 251.38 504.90 192.64 506.94 132.17
  Q 506.98 130.91 505.73 130.86
  Q 451.74 128.56 405.60 101.44
  C 384.76 89.18 363.56 75.62 342.20 66.29
  C 300.36 48.01 251.60 50.62 211.21 69.54
  Q 205.22 72.34 193.61 79.01
  C 164.91 95.50 143.43 108.92 115.94 119.21
  C 96.64 126.43 76.21 129.97 55.59 130.67
  Q 53.72 130.74 53.78 132.61
  C 55.00 169.52 60.25 206.09 69.01 242.29
  C 82.05 296.13 96.69 348.97 97.99 404.80
  Q 98.40 422.11 98.54 424.56
  C 99.42 438.95 100.67 455.60 108.28 467.71
  C 117.50 482.40 134.49 487.00 150.71 485.22
  A 0.90 0.90 0.0 0 1 151.71 486.11
  C 151.78 493.59 151.80 501.93 153.86 508.85
  C 165.58 548.16 216.56 560.58 251.07 569.18
  Q 257.39 570.76 262.20 572.34
  Z"
/>
<path fill="#735747" d="
  M 817.48 112.45
  C 827.17 80.21 855.87 63.58 888.82 65.08
  C 923.94 66.67 949.89 88.02 955.66 122.99
  C 961.94 161.08 943.90 198.23 904.50 207.79
  Q 904.05 207.90 904.00 208.32
  A 0.60 0.59 -76.7 0 0 904.39 208.96
  Q 936.42 220.41 967.91 233.70
  C 999.09 246.87 1038.95 247.38 1066.30 224.95
  Q 1066.56 224.73 1066.79 224.73
  Q 1067.08 224.72 1067.31 224.92
  Q 1067.70 225.26 1067.40 225.67
  C 1044.29 258.12 1001.02 261.33 967.26 245.73
  Q 955.67 240.37 918.22 222.36
  C 904.68 215.85 893.70 212.06 880.00 209.94
  Q 866.41 207.84 864.66 207.39
  C 821.85 196.24 805.50 152.32 817.48 112.45
  Z
  M 843.69 89.69
  C 831.76 104.51 827.63 122.26 828.35 141.01
  C 829.31 165.72 841.36 192.20 866.45 200.77
  Q 892.38 209.63 913.84 196.33
  C 936.72 182.16 943.32 154.31 941.62 129.26
  C 940.07 106.39 929.24 84.21 907.48 74.90
  C 885.94 65.70 858.68 71.06 843.69 89.69
  Z"
/>
<path fill="#d8aa4d" d="
  M 396.70 474.36
  C 397.74 482.39 397.54 491.19 396.27 500.51
  C 392.47 528.31 361.36 542.11 337.71 548.62
  Q 310.71 556.06 283.98 564.43
  Q 281.18 565.30 278.37 564.48
  Q 251.37 556.63 224.32 548.92
  C 200.99 542.28 172.34 530.84 165.30 505.03
  C 162.88 496.19 163.34 484.23 163.54 474.26
  A 0.81 0.81 0.0 0 0 162.69 473.43
  C 144.65 474.23 121.44 476.38 115.23 453.74
  C 108.37 428.73 111.11 403.32 108.58 377.85
  C 103.50 326.50 89.56 276.85 78.12 226.72
  Q 68.65 185.26 65.88 142.85
  A 0.67 0.67 0.0 0 1 66.49 142.14
  Q 117.19 137.67 160.92 111.39
  Q 171.66 104.94 197.87 89.76
  Q 209.23 83.18 215.48 80.29
  C 256.52 61.37 302.84 60.93 343.68 79.83
  C 369.33 91.69 391.93 108.81 417.21 121.01
  C 441.27 132.62 467.34 138.95 493.81 142.25
  A 0.95 0.95 0.0 0 1 494.64 143.25
  C 492.45 176.56 487.23 209.35 479.33 241.91
  C 467.42 291.01 453.16 340.13 451.39 390.99
  C 450.63 413.10 451.68 437.08 444.27 457.70
  C 437.45 476.68 412.92 473.61 397.46 473.50
  A 0.77 0.76 -3.9 0 0 396.70 474.36
  Z
  M 266.18 425.78
  Q 296.78 426.24 325.18 414.56
  A 0.74 0.73 -43.0 0 0 325.23 413.22
  L 314.06 407.73
  A 3.31 3.27 48.9 0 0 311.64 407.55
  C 253.54 426.13 189.42 406.79 172.93 342.38
  C 153.84 267.84 191.06 187.72 278.52 196.40
  C 319.68 200.49 350.17 218.69 361.67 259.98
  Q 361.98 261.12 362.46 261.79
  A 1.42 1.42 0.0 0 0 365.03 260.80
  Q 362.28 236.72 357.56 212.49
  Q 357.03 209.72 355.78 207.24
  Q 355.56 206.79 355.10 206.55
  C 308.24 182.29 246.00 175.15 198.06 200.03
  C 148.66 225.67 132.41 284.70 143.34 336.07
  C 156.40 397.49 207.14 424.90 266.18 425.78
  Z
  M 278.15 374.76
  C 306.29 367.86 323.84 347.81 328.22 319.82
  C 334.47 279.96 311.91 244.07 270.58 239.05
  C 234.66 234.68 203.43 253.56 195.00 289.42
  C 186.43 325.92 202.34 361.67 238.93 373.53
  Q 246.09 375.86 252.25 376.50
  C 269.80 378.33 285.21 383.90 301.21 392.02
  C 317.58 400.32 333.96 409.60 351.49 415.22
  C 380.28 424.46 415.33 418.06 433.35 392.04
  Q 433.53 391.77 433.54 391.50
  Q 433.55 391.09 433.44 390.89
  A 0.83 0.82 -33.1 0 0 432.18 390.63
  C 416.15 403.89 395.13 408.92 374.18 407.12
  C 359.22 405.83 346.36 401.35 332.51 395.73
  Q 305.55 384.78 278.13 375.21
  A 0.24 0.23 47.6 0 1 278.15 374.76
  Z
  M 343.62 392.26
  Q 349.18 394.10 354.99 395.77
  A 0.95 0.94 -56.0 0 0 355.83 395.60
  Q 365.07 388.15 370.23 380.46
  C 373.11 376.17 372.95 371.42 373.40 366.29
  Q 375.17 345.89 376.85 325.49
  Q 377.03 323.25 374.41 323.48
  A 1.28 1.27 89.0 0 0 373.24 324.70
  Q 371.55 363.97 342.97 390.30
  A 0.81 0.73 -8.3 0 0 342.82 390.48
  Q 342.11 391.75 343.62 392.26
  Z"
/>

<path fill="#735747" d="
  M 1302.28 181.72
  C 1302.07 180.61 1302.49 179.60 1302.49 178.64
  Q 1302.50 140.47 1302.51 102.27
  C 1302.51 91.90 1296.82 89.78 1287.69 88.52
  A 0.48 0.48 0.0 0 1 1287.76 87.56
  L 1325.50 87.47
  A 0.56 0.54 -66.7 0 1 1325.86 88.42
  Q 1325.74 88.54 1325.47 88.68
  Q 1325.28 88.78 1325.02 88.80
  C 1317.25 89.20 1311.29 92.15 1311.16 100.61
  C 1310.55 137.14 1309.94 173.52 1312.53 210.01
  Q 1312.59 210.80 1311.95 210.33
  Q 1309.05 208.20 1305.97 205.28
  Q 1257.70 159.56 1208.37 112.60
  Q 1207.01 111.31 1207.01 113.18
  Q 1206.98 153.72 1207.00 195.18
  C 1207.01 203.49 1214.40 205.45 1221.04 205.80
  A 0.48 0.48 0.0 0 1 1221.50 206.28
  Q 1221.50 206.47 1221.51 206.66
  Q 1221.54 207.25 1220.95 207.25
  L 1184.28 207.25
  A 0.51 0.48 67.3 0 1 1183.92 207.09
  Q 1183.75 206.90 1183.74 206.64
  Q 1183.71 206.20 1184.14 206.10
  C 1191.69 204.37 1197.62 203.82 1197.79 195.00
  C 1198.63 149.87 1198.95 118.73 1196.70 84.34
  A 0.53 0.53 0.0 0 1 1197.59 83.92
  L 1301.81 181.97
  A 0.28 0.28 0.0 0 0 1302.28 181.72
  Z"
/>
<path fill="#735747" d="
  M 1500.20 84.68
  Q 1500.23 84.36 1500.41 84.20
  A 0.55 0.55 0.0 0 1 1501.28 84.36
  C 1518.15 119.04 1533.38 154.80 1549.31 189.94
  C 1554.21 200.74 1558.35 203.18 1568.37 206.26
  A 0.35 0.35 0.0 0 1 1568.27 206.95
  Q 1548.14 207.59 1528.01 207.01
  A 0.35 0.33 74.1 0 1 1527.72 206.84
  L 1527.29 206.12
  A 0.27 0.27 0.0 0 1 1527.51 205.71
  C 1537.06 205.44 1537.37 197.32 1534.64 190.41
  Q 1530.05 178.83 1525.07 167.45
  A 1.18 1.17 78.0 0 0 1524.00 166.75
  L 1474.75 166.75
  A 0.83 0.80 -76.0 0 0 1474.03 167.20
  Q 1467.77 179.89 1462.96 193.14
  C 1461.29 197.75 1461.29 201.62 1465.67 204.23
  C 1467.22 205.15 1469.87 205.45 1471.90 206.58
  Q 1472.59 206.96 1471.80 207.01
  Q 1453.60 208.21 1435.43 207.37
  Q 1435.02 207.35 1434.65 207.14
  Q 1434.28 206.93 1433.94 206.85
  A 0.32 0.31 45.4 0 1 1433.94 206.23
  C 1446.67 203.83 1449.26 196.65 1455.14 184.32
  C 1470.75 151.60 1487.02 119.78 1500.10 85.17
  Q 1500.16 85.01 1500.20 84.68
  Z
  M 1477.12 159.45
  A 0.70 0.70 0.0 0 0 1477.76 160.43
  L 1521.27 160.58
  A 0.70 0.70 0.0 0 0 1521.92 159.61
  L 1500.35 107.65
  A 0.70 0.70 0.0 0 0 1499.06 107.64
  L 1477.12 159.45
  Z"
/>
<path fill="#735747" d="
  M 1383.52 93.28
  Q 1366.39 93.18 1348.93 93.28
  C 1339.77 93.33 1338.27 98.90 1336.68 106.37
  A 0.57 0.57 0.0 0 1 1335.56 106.26
  L 1335.35 85.19
  A 0.82 0.82 0.0 0 1 1336.36 84.39
  C 1343.44 86.17 1349.59 86.97 1357.39 86.98
  Q 1389.82 87.02 1422.25 86.92
  Q 1433.72 86.89 1444.72 84.52
  A 0.70 0.70 0.0 0 1 1445.56 85.22
  L 1445.17 106.27
  A 0.48 0.47 -54.8 0 1 1444.25 106.43
  C 1441.65 99.47 1442.76 93.83 1433.25 93.28
  Q 1413.96 92.16 1397.78 93.44
  Q 1397.25 93.48 1397.24 94.02
  Q 1396.25 141.97 1396.54 189.90
  C 1396.60 199.72 1401.20 204.11 1410.38 206.27
  A 0.50 0.50 0.0 0 1 1410.26 207.25
  L 1370.98 207.25
  Q 1370.49 207.25 1370.51 206.76
  Q 1370.56 205.70 1371.69 205.65
  C 1383.47 205.10 1384.25 198.01 1384.25 187.69
  Q 1384.25 140.95 1384.25 94.01
  A 0.73 0.73 0.0 0 0 1383.52 93.28
  Z"
/>
<path fill="#735747" d="
  M 1080.25 147.68
  Q 1080.57 122.59 1080.32 97.50
  C 1080.24 90.10 1073.05 89.52 1068.12 88.48
  A 0.39 0.38 48.3 0 1 1068.16 87.72
  Q 1081.13 86.64 1093.99 86.83
  Q 1098.11 86.89 1101.83 87.88
  A 0.37 0.37 0.0 0 1 1101.79 88.61
  C 1094.97 89.69 1089.71 90.91 1089.75 99.25
  Q 1089.91 128.37 1089.69 157.50
  Q 1089.63 165.27 1088.67 172.99
  C 1085.35 199.80 1060.64 211.67 1036.18 209.89
  C 1001.09 207.33 989.52 188.38 989.53 155.12
  C 989.54 133.01 990.25 114.46 989.86 98.42
  C 989.67 90.80 983.83 89.87 977.83 88.64
  Q 977.04 88.48 977.27 87.85
  A 0.48 0.47 9.4 0 1 977.72 87.53
  L 1014.71 87.51
  A 0.54 0.54 0.0 0 1 1014.80 88.58
  C 1004.58 90.22 1002.03 92.52 1002.01 103.24
  Q 1001.97 128.75 1002.02 154.25
  C 1002.06 170.10 1002.94 185.22 1015.31 196.44
  C 1028.28 208.20 1053.70 207.14 1067.21 196.37
  C 1082.40 184.25 1080.04 164.97 1080.25 147.68
  Z"
/>
<path fill="#735747" d="
  M 1159.66 87.66
  C 1161.07 87.69 1163.37 87.20 1165.27 87.77
  A 0.33 0.32 -42.4 0 1 1165.24 88.40
  C 1154.86 90.50 1149.27 91.69 1149.26 103.94
  Q 1149.23 148.84 1149.25 193.75
  C 1149.25 202.31 1157.13 205.34 1164.88 205.74
  A 0.35 0.35 0.0 0 1 1165.04 206.39
  Q 1163.62 207.19 1161.81 207.20
  Q 1141.56 207.31 1121.54 207.23
  A 0.59 0.59 0.0 0 1 1121.44 206.05
  C 1132.70 204.08 1136.75 201.37 1136.75 189.40
  C 1136.75 167.09 1136.52 144.80 1137.20 122.50
  Q 1137.66 107.52 1136.51 97.50
  C 1135.90 92.12 1126.09 89.11 1121.22 88.81
  Q 1120.68 88.78 1120.78 88.24
  Q 1120.84 87.96 1121.03 87.77
  Q 1121.19 87.60 1121.53 87.60
  Q 1140.60 87.30 1159.66 87.66
  Z"
/>
<path fill="#d8aa4d" d="
  M 257.69 370.81
  C 184.58 365.94 191.48 233.20 270.27 244.79
  C 333.76 254.14 330.25 375.65 257.69 370.81
  Z"
/>
<path fill="#d8aa4d" d="
  M 647.89 453.35
  C 599.03 432.37 581.48 376.45 593.06 328.10
  C 611.79 249.93 700.03 234.50 762.30 271.04
  A 2.06 2.05 -78.9 0 1 763.29 272.52
  Q 765.77 290.52 768.54 308.80
  Q 768.81 310.63 768.20 312.15
  A 0.69 0.69 0.0 0 1 766.90 312.10
  C 755.32 274.90 724.25 258.55 686.96 261.20
  C 650.75 263.78 625.63 288.13 616.17 322.04
  C 604.73 363.08 612.56 416.83 651.58 441.85
  C 671.75 454.78 696.94 456.61 720.01 450.21
  C 755.77 440.30 771.23 409.80 775.37 375.43
  Q 775.52 374.18 776.84 373.83
  Q 777.27 373.71 777.26 374.16
  Q 776.50 403.04 774.07 418.51
  C 773.77 420.42 770.85 424.86 769.27 426.93
  C 740.48 464.48 689.56 471.25 647.89 453.35
  Z"
/>
<path fill="#d8aa4d" d="
  M 845.17 458.57
  L 791.84 458.34
  Q 791.10 458.34 790.88 457.63
  L 790.74 457.19
  Q 790.50 456.43 791.29 456.37
  C 806.34 455.28 812.91 445.27 818.77 432.75
  Q 845.18 376.31 871.59 319.87
  C 877.91 306.36 882.37 294.47 887.54 281.54
  A 1.19 1.19 0.0 0 1 889.73 281.49
  Q 922.80 354.24 955.63 426.89
  C 962.06 441.12 967.72 454.85 985.60 456.31
  Q 986.20 456.36 986.17 456.96
  Q 986.09 458.62 984.18 458.61
  Q 956.04 458.40 927.87 458.53
  C 926.89 458.54 925.96 458.13 925.93 457.08
  A 0.71 0.71 0.0 0 1 926.56 456.35
  C 939.76 454.94 941.60 445.67 937.40 435.27
  Q 930.38 417.90 923.41 400.96
  A 1.54 1.53 78.9 0 0 921.99 400.00
  L 850.24 400.00
  Q 849.64 400.00 849.40 400.55
  Q 842.07 417.22 835.27 433.93
  C 832.68 440.29 830.40 444.57 833.82 449.84
  C 836.36 453.73 840.91 455.41 845.43 456.49
  A 1.06 1.05 -38.0 0 1 845.17 458.57
  Z
  M 853.81 390.14
  A 0.72 0.72 0.0 0 0 854.47 391.13
  L 918.36 391.36
  A 0.72 0.72 0.0 0 0 919.03 390.36
  L 887.35 313.42
  A 0.72 0.72 0.0 0 0 886.02 313.41
  L 853.81 390.14
  Z"
/>
<path fill="#d8aa4d" d="
  M 1437.22 294.02
  A 0.72 0.72 0.0 0 0 1436.50 294.74
  L 1436.50 366.99
  A 0.48 0.47 1.3 0 0 1436.96 367.46
  Q 1461.34 368.04 1485.88 367.61
  C 1497.74 367.41 1495.94 359.44 1498.94 351.29
  A 0.99 0.98 55.3 0 1 1500.85 351.64
  Q 1500.73 370.77 1500.75 390.04
  Q 1500.75 390.46 1500.86 390.95
  Q 1501.04 391.75 1500.94 391.85
  A 1.73 1.73 0.0 0 1 1497.96 390.46
  C 1499.24 379.42 1492.46 376.57 1482.86 376.28
  Q 1459.98 375.60 1437.18 376.56
  A 0.57 0.57 0.0 0 0 1436.63 377.13
  C 1436.51 400.90 1435.49 425.42 1436.85 449.19
  Q 1436.88 449.71 1437.41 449.72
  Q 1460.47 449.84 1483.48 449.69
  C 1501.07 449.57 1513.36 442.24 1522.35 427.89
  C 1524.45 424.55 1526.53 419.32 1529.39 416.71
  A 0.75 0.75 0.0 0 1 1530.60 417.53
  L 1515.45 457.47
  A 1.59 1.57 9.9 0 1 1513.98 458.49
  L 1398.55 458.56
  Q 1397.97 458.56 1397.82 457.99
  L 1397.47 456.60
  Q 1397.27 455.81 1398.08 455.85
  C 1416.38 456.71 1418.19 444.92 1418.21 429.74
  Q 1418.30 369.13 1418.20 308.49
  C 1418.19 299.81 1416.19 290.72 1406.39 288.55
  C 1404.32 288.08 1400.64 288.17 1397.85 287.25
  A 1.03 1.03 0.0 0 1 1398.17 285.25
  Q 1435.94 285.24 1474.01 285.25
  C 1488.42 285.25 1500.46 283.79 1513.76 280.87
  Q 1514.25 280.77 1514.25 281.27
  L 1514.25 312.51
  A 0.73 0.72 84.1 0 1 1513.68 313.22
  C 1512.09 313.56 1511.28 312.60 1511.36 311.06
  Q 1512.03 299.28 1502.70 295.39
  Q 1499.36 293.99 1492.62 293.99
  Q 1464.75 293.97 1437.22 294.02
  Z"
/>
<path fill="#d8aa4d" d="
  M 1668.43 400.07
  L 1597.58 399.70
  A 0.79 0.79 0.0 0 0 1596.86 400.16
  Q 1588.97 417.66 1581.95 435.64
  C 1578.36 444.83 1579.35 455.03 1591.85 455.73
  Q 1593.13 455.80 1593.21 457.21
  A 1.22 1.22 0.0 0 1 1591.99 458.50
  L 1538.75 458.50
  Q 1538.06 458.50 1538.06 457.81
  L 1538.06 456.65
  Q 1538.06 456.05 1538.65 456.01
  C 1552.44 455.05 1560.17 445.86 1565.62 434.19
  Q 1593.89 373.68 1621.86 313.04
  C 1626.39 303.23 1630.19 293.32 1634.10 283.33
  Q 1634.64 281.95 1635.21 281.20
  A 1.04 1.03 -38.8 0 1 1636.98 281.39
  Q 1672.25 358.72 1706.72 435.29
  C 1711.75 446.45 1719.26 454.91 1732.19 455.99
  A 0.83 0.82 81.3 0 1 1732.89 456.51
  Q 1733.29 457.52 1732.75 458.10
  Q 1732.39 458.49 1731.50 458.49
  Q 1703.11 458.52 1674.72 458.49
  Q 1674.12 458.49 1673.69 458.06
  L 1673.39 457.76
  A 1.08 1.08 0.0 0 1 1674.14 455.91
  C 1688.41 455.74 1688.03 444.06 1684.11 433.81
  Q 1678.03 417.93 1670.82 401.63
  Q 1670.13 400.08 1668.43 400.07
  Z
  M 1601.02 390.07
  A 0.77 0.77 0.0 0 0 1601.73 391.14
  L 1665.60 391.47
  A 0.77 0.77 0.0 0 0 1666.31 390.41
  L 1634.78 313.42
  A 0.77 0.77 0.0 0 0 1633.36 313.41
  L 1601.02 390.07
  Z"
/>
<path fill="#d8aa4d" d="
  M 1000.53 288.02
  A 0.77 0.75 0.9 0 1 999.82 287.30
  C 999.75 286.00 1000.49 285.32 1001.78 285.31
  Q 1050.35 285.00 1078.75 285.46
  C 1103.75 285.87 1129.09 299.71 1131.14 327.31
  C 1133.16 354.54 1114.52 375.39 1088.27 379.19
  A 0.66 0.66 0.0 0 0 1087.98 380.37
  C 1094.10 384.77 1099.01 389.28 1103.73 395.74
  Q 1120.70 418.96 1139.07 439.43
  C 1147.36 448.68 1156.97 454.95 1169.51 455.93
  A 0.99 0.99 0.0 0 1 1169.56 457.89
  Q 1135.22 462.34 1112.83 439.27
  Q 1108.90 435.22 1100.54 423.52
  Q 1085.03 401.81 1075.42 389.58
  Q 1065.25 376.63 1049.40 373.39
  A 0.95 0.95 0.0 0 1 1049.60 371.50
  Q 1060.36 371.60 1071.25 371.04
  Q 1082.64 370.45 1088.00 368.51
  C 1107.13 361.60 1113.39 340.61 1109.73 322.25
  C 1103.41 290.60 1063.76 292.39 1039.90 294.47
  A 1.08 1.07 -3.4 0 0 1038.92 295.57
  C 1039.44 313.27 1039.08 332.71 1039.03 348.07
  Q 1038.80 414.01 1039.34 440.24
  C 1039.58 452.03 1048.64 455.57 1058.69 456.26
  A 0.93 0.93 0.0 0 1 1059.29 457.84
  L 1058.98 458.15
  Q 1058.62 458.50 1058.13 458.50
  L 1000.52 458.50
  Q 999.98 458.50 1000.00 457.96
  L 1000.07 456.59
  Q 1000.09 456.07 1000.61 456.05
  C 1016.36 455.46 1020.22 449.25 1020.23 434.20
  Q 1020.27 368.72 1020.24 303.26
  C 1020.23 290.74 1010.80 288.74 1000.53 288.02
  Z"
/>
<path fill="#d8aa4d" d="
  M 1181.86 287.24
  Q 1181.25 287.16 1181.25 286.54
  L 1181.25 285.97
  A 0.70 0.70 0.0 0 1 1181.95 285.27
  Q 1229.20 285.21 1276.44 285.28
  C 1293.17 285.30 1308.42 286.97 1322.43 293.30
  Q 1363.38 311.79 1370.03 356.75
  C 1377.41 406.69 1349.88 450.31 1298.50 456.98
  C 1287.76 458.37 1276.82 459.08 1265.13 458.91
  Q 1223.61 458.34 1182.08 458.52
  A 0.54 0.53 4.9 0 1 1181.55 457.90
  L 1181.82 456.31
  Q 1181.93 455.72 1182.53 455.76
  C 1195.61 456.82 1201.97 448.41 1201.98 436.27
  Q 1202.03 373.88 1201.98 311.50
  C 1201.98 303.11 1201.20 292.64 1192.25 289.06
  C 1189.33 287.89 1185.34 287.72 1181.86 287.24
  Z
  M 1220.62 295.03
  L 1220.88 448.63
  A 1.37 1.37 0.0 0 0 1222.26 450.00
  L 1279.69 449.90
  A 70.81 70.80 89.9 0 0 1350.36 378.97
  L 1350.34 364.25
  A 70.81 70.80 89.9 0 0 1279.41 293.56
  L 1221.98 293.66
  A 1.37 1.37 0.0 0 0 1220.62 295.03
  Z"
/>
<path fill="#d8aa4d" d="
  M 1749.11 287.94
  A 1.45 1.44 -25.1 0 1 1748.19 287.61
  Q 1747.08 286.69 1747.66 285.72
  Q 1747.94 285.25 1748.48 285.25
  L 1806.52 285.25
  A 0.97 0.97 0.0 0 1 1807.40 286.63
  C 1807.06 287.34 1806.25 287.88 1805.40 287.86
  C 1782.47 287.29 1786.72 310.68 1786.73 326.26
  Q 1786.77 387.08 1786.73 449.38
  Q 1786.73 449.63 1786.99 449.64
  Q 1810.60 450.11 1834.25 449.31
  C 1857.69 448.51 1868.47 436.66 1878.29 417.37
  A 0.78 0.78 0.0 0 1 1879.50 417.15
  Q 1880.28 417.84 1879.79 419.17
  Q 1872.78 438.31 1865.26 457.84
  A 1.03 1.02 10.3 0 1 1864.30 458.50
  L 1748.98 458.50
  A 1.47 1.47 0.0 0 1 1748.73 455.59
  C 1750.47 455.29 1752.37 455.73 1753.90 455.54
  C 1766.59 453.95 1768.23 443.10 1768.23 432.50
  Q 1768.27 369.62 1768.00 306.74
  Q 1767.92 287.72 1749.11 287.94
  Z"
/>

<rect fill="#735747" x="589.79" y="492.25" width="1290.60" height="5.50" rx="0.57"/>
<path fill="#735747" d="
  M 1152.29 510.85
  A 1.38 1.37 -54.9 0 0 1150.83 511.11
  L 1148.14 513.60
  Q 1147.53 514.16 1147.56 513.33
  C 1147.85 505.95 1154.73 508.86 1158.82 510.18
  C 1160.70 510.79 1161.49 510.54 1162.13 508.66
  Q 1162.61 507.28 1164.00 507.58
  Q 1164.47 507.69 1164.42 508.17
  C 1163.58 515.17 1156.29 512.51 1152.29 510.85
  Z"
/>
<path fill="#735747" d="
  M 1798.9647 555.6392
  A 19.96 18.32 97.5 0 1 1783.4067 533.4588
  A 19.96 18.32 97.5 0 1 1804.1753 516.0608
  A 19.96 18.32 97.5 0 1 1819.7333 538.2412
  A 19.96 18.32 97.5 0 1 1798.9647 555.6392
  Z
  M 1801.3433 551.5994
  A 15.67 13.41 90.5 0 0 1814.8895 536.0470
  A 15.67 13.41 90.5 0 0 1801.6167 520.2606
  A 15.67 13.41 90.5 0 0 1788.0705 535.8130
  A 15.67 13.41 90.5 0 0 1801.3433 551.5994
  Z"
/>
<path fill="#735747" d="
  M 606.2692 555.7611
  A 19.92 18.37 95.1 0 1 589.7427 534.2870
  A 19.92 18.37 95.1 0 1 609.8108 516.0789
  A 19.92 18.37 95.1 0 1 626.3373 537.5530
  A 19.92 18.37 95.1 0 1 606.2692 555.7611
  Z
  M 607.3573 551.8338
  A 15.71 13.33 92.6 0 0 621.3863 536.7447
  A 15.71 13.33 92.6 0 0 608.7827 520.4462
  A 15.71 13.33 92.6 0 0 594.7537 535.5353
  A 15.71 13.33 92.6 0 0 607.3573 551.8338
  Z"
/>
<path fill="#735747" d="
  M 1217.4533 555.6655
  A 19.95 18.42 96.9 0 1 1201.5634 533.6471
  A 19.95 18.42 96.9 0 1 1222.2467 516.0545
  A 19.95 18.42 96.9 0 1 1238.1366 538.0729
  A 19.95 18.42 96.9 0 1 1217.4533 555.6655
  Z
  M 1219.0600 551.8326
  A 15.71 13.23 92.7 0 0 1233.0153 536.7632
  A 15.71 13.23 92.7 0 0 1220.5400 520.4474
  A 15.71 13.23 92.7 0 0 1206.5847 535.5168
  A 15.71 13.23 92.7 0 0 1219.0600 551.8326
  Z"
/>
<path fill="#735747" d="
  M 732.88 554.11
  C 711.92 545.65 723.46 507.32 748.04 518.18
  Q 753.82 520.73 755.24 527.65
  Q 755.34 528.12 754.90 528.29
  C 752.77 529.10 751.47 528.65 750.34 526.62
  Q 745.98 518.80 738.43 520.48
  C 723.74 523.76 721.60 549.27 737.54 551.38
  C 745.14 552.39 750.83 548.81 751.62 540.91
  Q 751.83 538.83 749.74 538.80
  L 740.58 538.65
  Q 739.77 538.64 739.80 537.83
  L 739.92 535.47
  Q 739.95 534.83 740.59 534.82
  L 755.36 534.72
  Q 756.00 534.71 756.00 535.36
  L 756.00 554.27
  A 0.96 0.96 0.0 0 1 754.41 555.00
  Q 752.64 553.49 752.07 551.21
  A 0.66 0.66 0.0 0 0 751.02 550.86
  Q 742.31 557.91 732.88 554.11
  Z"
/>
<path fill="#735747" d="
  M 1094.21 561.57
  Q 1092.54 559.77 1090.07 560.29
  A 1.14 1.14 0.0 0 1 1089.02 558.38
  L 1090.50 556.84
  A 0.60 0.60 0.0 0 0 1090.23 555.85
  C 1069.59 550.14 1071.53 517.12 1093.52 516.45
  Q 1105.08 516.09 1108.06 527.07
  A 1.40 1.40 0.0 0 1 1105.77 528.48
  Q 1103.13 526.11 1101.38 522.98
  Q 1101.12 522.52 1100.66 522.27
  C 1081.67 511.93 1073.97 542.34 1087.18 550.13
  C 1094.66 554.55 1102.61 549.35 1105.26 541.80
  A 0.73 0.71 10.3 0 1 1105.97 541.32
  L 1107.96 541.38
  Q 1108.76 541.41 1108.59 542.20
  Q 1105.93 554.84 1093.16 555.56
  A 0.96 0.96 0.0 0 0 1092.77 557.37
  C 1103.76 563.06 1093.14 567.61 1086.74 565.58
  A 0.45 0.45 0.0 0 1 1086.61 564.79
  C 1089.02 563.03 1092.08 565.22 1094.24 562.48
  A 0.71 0.70 -47.1 0 0 1094.21 561.57
  Z"
/>
<path fill="#735747" d="
  M 1858.42 530.64
  C 1865.49 533.15 1879.71 533.51 1880.32 543.20
  C 1881.40 560.20 1852.38 559.85 1851.55 543.61
  Q 1851.52 543.01 1852.10 542.89
  L 1854.35 542.43
  Q 1854.94 542.31 1855.10 542.90
  C 1857.43 551.58 1867.86 555.15 1874.29 548.93
  C 1877.34 545.98 1877.27 541.36 1872.75 539.97
  C 1867.82 538.44 1855.68 536.30 1853.41 531.51
  C 1845.90 515.65 1876.80 510.19 1879.18 525.26
  C 1879.43 526.87 1878.91 528.28 1877.15 528.41
  A 1.30 1.29 -14.9 0 1 1875.88 527.68
  Q 1871.53 518.65 1862.75 520.37
  C 1857.85 521.33 1855.64 525.32 1857.67 529.96
  A 1.29 1.29 0.0 0 0 1858.42 530.64
  Z"
/>
<path fill="#735747" d="
  M 681.04 539.40
  C 678.92 537.92 669.94 538.82 666.64 538.70
  Q 664.25 538.61 664.25 541.00
  L 664.25 553.30
  A 1.84 1.83 -9.7 0 1 663.02 555.03
  C 661.06 555.70 659.67 554.17 659.55 552.35
  Q 658.63 537.66 659.55 522.94
  Q 659.69 520.71 659.28 518.54
  A 0.82 0.81 80.5 0 1 659.96 517.58
  Q 669.59 516.11 679.43 517.28
  C 689.09 518.42 692.82 528.41 685.40 535.24
  A 1.22 1.22 0.0 0 0 685.35 536.98
  C 689.16 540.94 689.38 548.26 689.76 555.00
  Q 689.79 555.59 689.21 555.50
  L 685.72 554.96
  Q 684.06 554.70 684.22 553.02
  C 684.59 549.10 684.62 541.90 681.04 539.40
  Z
  M 664.51 522.06
  L 664.49 533.68
  A 0.56 0.56 0.0 0 0 665.05 534.24
  L 678.03 534.27
  A 6.22 5.73 0.1 0 0 684.26 528.55
  L 684.26 527.27
  A 6.22 5.73 0.1 0 0 678.05 521.53
  L 665.07 521.50
  A 0.56 0.56 0.0 0 0 664.51 522.06
  Z"
/>
<path fill="#735747" d="
  M 788.68 554.69
  A 0.86 0.86 0.0 0 1 788.13 553.57
  Q 794.50 536.54 801.04 519.02
  C 802.30 515.64 806.60 516.23 807.76 519.40
  Q 814.11 536.76 820.54 554.10
  A 0.64 0.64 0.0 0 1 819.95 554.96
  L 816.46 555.01
  A 0.92 0.91 -9.3 0 1 815.59 554.39
  L 812.10 544.06
  A 0.83 0.82 80.6 0 0 811.32 543.50
  L 796.99 543.50
  Q 796.36 543.50 796.14 544.08
  Q 794.40 548.71 793.02 553.26
  Q 792.24 555.84 788.68 554.69
  Z
  M 798.26 538.32
  A 0.84 0.84 0.0 0 0 799.04 539.46
  L 808.97 539.55
  A 0.84 0.84 0.0 0 0 809.76 538.42
  L 804.92 524.93
  A 0.84 0.84 0.0 0 0 803.34 524.91
  L 798.26 538.32
  Z"
/>
<path fill="#735747" d="
  M 858.21 525.62
  A 0.66 0.66 0.0 0 0 857.00 525.99
  L 857.00 554.21
  A 0.76 0.75 88.4 0 1 856.29 554.97
  L 852.97 555.14
  Q 852.26 555.18 852.26 554.47
  L 851.92 518.31
  A 0.96 0.95 74.8 0 1 852.40 517.46
  C 855.47 515.67 857.96 517.05 859.73 519.93
  Q 867.88 533.26 876.31 546.44
  Q 876.64 546.96 876.93 546.99
  A 0.74 0.74 0.0 0 0 877.75 546.25
  L 877.75 517.85
  Q 877.75 517.26 878.34 517.27
  L 881.33 517.32
  Q 881.97 517.34 881.98 517.98
  Q 882.27 535.25 882.26 552.50
  Q 882.25 554.60 880.95 554.90
  C 877.52 555.68 876.04 554.12 874.30 551.23
  Q 866.51 538.27 858.21 525.62
  Z"
/>
<path fill="#735747" d="
  M 1162.43 543.54
  L 1147.98 543.32
  A 0.77 0.76 7.0 0 0 1147.22 543.91
  C 1146.29 547.87 1144.95 555.47 1140.27 555.08
  A 1.12 1.12 0.0 0 1 1139.32 553.57
  L 1153.06 517.29
  Q 1153.27 516.74 1153.84 516.82
  L 1157.52 517.30
  A 1.49 1.48 83.5 0 1 1158.74 518.28
  L 1171.34 552.96
  A 1.75 1.75 0.0 0 1 1168.97 555.15
  C 1165.60 553.59 1164.33 547.37 1163.22 544.11
  A 0.85 0.84 -8.7 0 0 1162.43 543.54
  Z
  M 1149.58 538.45
  A 0.74 0.74 0.0 0 0 1150.27 539.45
  L 1160.45 539.55
  A 0.74 0.74 0.0 0 0 1161.16 538.57
  L 1156.21 524.40
  A 0.74 0.74 0.0 0 0 1154.82 524.38
  L 1149.58 538.45
  Z"
/>
<path fill="#735747" d="
  M 1557.01 552.53
  C 1555.73 555.86 1551.77 555.52 1550.68 552.57
  Q 1544.27 535.23 1538.19 517.92
  A 0.63 0.63 0.0 0 1 1538.65 517.10
  Q 1542.53 516.22 1543.73 520.00
  Q 1548.09 533.71 1552.98 547.23
  C 1553.06 547.45 1553.31 547.74 1553.48 547.86
  A 0.69 0.69 0.0 0 0 1554.53 547.52
  L 1564.82 517.31
  A 1.01 1.01 0.0 0 1 1566.00 516.65
  L 1569.16 517.36
  Q 1569.90 517.53 1569.65 518.24
  Q 1563.55 535.47 1557.01 552.53
  Z"
/>
<path fill="#735747" d="
  M 1312.02 518.51
  A 1.62 1.62 0.0 0 1 1313.64 516.90
  L 1325.49 516.92
  A 17.76 17.55 -89.9 0 1 1343.01 534.71
  L 1343.01 537.35
  A 17.76 17.55 -89.9 0 1 1325.43 555.08
  L 1313.58 555.06
  A 1.62 1.62 0.0 0 1 1311.96 553.43
  L 1312.02 518.51
  Z
  M 1316.94 522.82
  L 1317.26 549.19
  A 1.43 1.43 0.0 0 0 1318.71 550.61
  L 1326.34 550.51
  A 11.36 11.09 -0.7 0 0 1337.56 539.29
  L 1337.48 532.23
  A 11.36 11.09 -0.7 0 0 1325.98 521.28
  L 1318.35 521.37
  A 1.43 1.43 0.0 0 0 1316.94 522.82
  Z"
/>
<path fill="#735747" d="
  M 1484.02 522.41
  L 1484.25 532.96
  A 0.58 0.58 0.0 0 0 1484.84 533.53
  L 1504.66 533.16
  A 0.58 0.58 0.0 0 1 1505.25 533.74
  L 1505.25 536.67
  A 0.58 0.58 0.0 0 1 1504.67 537.25
  L 1484.86 537.25
  A 0.58 0.58 0.0 0 0 1484.28 537.81
  L 1483.91 550.04
  A 0.58 0.58 0.0 0 0 1484.49 550.63
  L 1506.28 550.45
  A 0.58 0.58 0.0 0 1 1506.85 551.14
  L 1506.29 554.03
  A 0.58 0.58 0.0 0 1 1505.72 554.50
  L 1479.76 554.50
  A 0.58 0.58 0.0 0 1 1479.18 553.92
  L 1479.41 517.98
  A 0.58 0.58 0.0 0 1 1479.98 517.40
  L 1505.91 517.06
  A 0.58 0.58 0.0 0 1 1506.50 517.64
  L 1506.50 520.67
  A 0.58 0.58 0.0 0 1 1505.94 521.25
  L 1484.59 521.81
  A 0.58 0.58 0.0 0 0 1484.02 522.41
  Z"
/>
<path fill="#735747" d="
  M 1742.00 522.09
  L 1742.00 554.24
  A 0.83 0.83 0.0 0 1 1741.02 555.05
  L 1737.60 554.41
  A 0.83 0.83 0.0 0 1 1736.93 553.58
  L 1737.29 522.13
  A 0.83 0.83 0.0 0 0 1736.50 521.29
  L 1725.47 520.79
  A 0.83 0.83 0.0 0 1 1724.69 520.14
  L 1724.27 518.21
  A 0.83 0.83 0.0 0 1 1725.08 517.20
  L 1754.48 517.28
  A 0.83 0.83 0.0 0 1 1755.28 518.34
  L 1754.60 520.66
  A 0.83 0.83 0.0 0 1 1753.80 521.25
  L 1742.83 521.26
  A 0.83 0.83 0.0 0 0 1742.00 522.09
  Z"
/>
<rect fill="#735747" x="-2.18" y="-18.86" transform="translate(920.08,536.12) rotate(0.2)" width="4.36" height="37.72" rx="0.66"/>
<path fill="#735747" d="
  M 977.36 521.26
  L 956.99 521.24
  Q 956.49 521.24 956.49 520.74
  L 956.52 517.89
  Q 956.52 517.23 957.18 517.23
  L 983.72 517.28
  A 1.34 1.34 0.0 0 1 984.93 519.17
  Q 983.83 521.60 982.06 523.83
  Q 971.84 536.72 961.68 549.45
  A 0.76 0.75 -70.4 0 0 962.26 550.68
  L 983.89 550.78
  Q 984.50 550.79 984.50 551.39
  L 984.50 553.86
  Q 984.50 554.48 983.89 554.48
  L 956.06 554.83
  Q 954.30 554.85 954.97 553.22
  Q 957.52 546.99 962.24 541.01
  Q 969.85 531.38 977.74 522.08
  A 0.50 0.50 0.0 0 0 977.36 521.26
  Z"
/>
<path fill="#735747" d="
  M 1013.64 554.52
  A 0.46 0.46 0.0 0 1 1013.31 553.91
  L 1026.44 519.23
  A 3.70 3.70 0.0 0 1 1033.38 519.29
  L 1045.97 554.35
  A 0.56 0.55 83.7 0 1 1045.38 555.09
  L 1041.62 554.65
  A 0.80 0.79 84.1 0 1 1040.96 554.11
  L 1037.47 544.28
  A 0.78 0.78 0.0 0 0 1036.73 543.75
  L 1022.47 543.75
  Q 1021.82 543.75 1021.59 544.36
  L 1017.68 554.69
  Q 1017.43 555.34 1016.75 555.20
  L 1013.64 554.52
  Z
  M 1023.98 538.54
  A 0.67 0.67 0.0 0 0 1024.60 539.43
  L 1034.40 539.57
  A 0.67 0.67 0.0 0 0 1035.05 538.70
  L 1030.35 524.13
  A 0.67 0.67 0.0 0 0 1029.08 524.11
  L 1023.98 538.54
  Z"
/>
<path fill="#735747" d="
  M 1376.74 554.03
  L 1376.45 518.07
  A 0.81 0.81 0.0 0 1 1377.26 517.25
  L 1403.68 517.25
  A 0.81 0.81 0.0 0 1 1404.49 518.17
  L 1404.16 520.59
  A 0.81 0.81 0.0 0 1 1403.38 521.29
  L 1382.04 521.93
  A 0.81 0.81 0.0 0 0 1381.25 522.74
  L 1381.25 532.72
  A 0.81 0.81 0.0 0 0 1382.06 533.53
  L 1401.62 533.44
  A 0.81 0.81 0.0 0 1 1402.42 534.11
  L 1402.82 536.29
  A 0.81 0.81 0.0 0 1 1402.03 537.25
  L 1382.06 537.25
  A 0.81 0.81 0.0 0 0 1381.25 538.06
  L 1381.25 549.67
  A 0.81 0.81 0.0 0 0 1382.05 550.48
  L 1403.88 550.71
  A 0.81 0.81 0.0 0 1 1404.68 551.61
  L 1404.43 553.75
  A 0.81 0.81 0.0 0 1 1403.64 554.47
  L 1377.56 554.83
  A 0.81 0.81 0.0 0 1 1376.74 554.03
  Z"
/>
<path fill="#735747" d="
  M 1606.88 537.84
  L 1607.05 549.48
  A 0.96 0.95 0.3 0 0 1607.99 550.42
  L 1629.38 550.74
  Q 1630.00 550.75 1630.00 551.38
  L 1630.00 553.75
  Q 1630.00 554.50 1629.25 554.50
  L 1602.50 554.50
  A 0.50 0.50 0.0 0 1 1602.00 554.00
  L 1602.00 518.00
  A 0.75 0.75 0.0 0 1 1602.75 517.25
  L 1628.49 517.25
  A 1.17 1.16 81.6 0 1 1629.60 518.08
  C 1630.31 520.49 1629.05 521.37 1626.81 521.28
  Q 1617.10 520.92 1607.47 522.01
  A 0.53 0.52 -3.1 0 0 1607.00 522.53
  L 1607.01 532.60
  A 0.65 0.65 0.0 0 0 1607.66 533.25
  L 1626.92 533.25
  Q 1627.66 533.25 1627.76 533.98
  L 1628.07 536.41
  Q 1628.17 537.25 1627.33 537.25
  L 1607.47 537.25
  A 0.59 0.59 0.0 0 0 1606.88 537.84
  Z"
/>
<path fill="#735747" d="
  M 1667.82 526.89
  Q 1667.53 539.16 1667.78 552.05
  C 1667.84 554.82 1666.57 555.98 1663.93 554.91
  Q 1663.50 554.74 1663.50 554.27
  L 1663.50 517.83
  Q 1663.50 517.22 1664.11 517.24
  L 1668.50 517.37
  Q 1669.05 517.39 1669.34 517.86
  Q 1678.13 532.21 1687.05 546.44
  Q 1687.47 547.10 1688.20 547.27
  A 0.27 0.26 -83.9 0 0 1688.52 547.01
  L 1688.49 517.88
  A 0.66 0.66 0.0 0 1 1689.19 517.22
  L 1692.33 517.38
  Q 1693.00 517.41 1693.00 518.08
  L 1693.00 553.79
  Q 1693.00 554.37 1692.45 554.55
  C 1688.91 555.73 1686.96 553.91 1685.14 550.87
  Q 1677.88 538.77 1669.67 526.35
  A 1.01 1.01 0.0 0 0 1667.82 526.89
  Z"
/>
</svg>
